<svg xmlns="http://www.w3.org/2000/svg" fill="none" viewBox="0 0 40 40">
  <path fill="#CFD2DE" d="M5.02 31.22V12.07l1.67-1.67h26.66l1.67 1.67v19.15l-1.67 1.66H6.69l-1.67-1.66Z"/>
  <path fill="#CFD2DE" d="M25.63 10.8H14.4l1.47-3.68h8.27l1.48 3.68Z"/>
  <path fill="#232E6A" d="M4.98 28v3.21l1.67 1.67h26.66l1.67-1.67V28h-30Z"/>
  <path fill="#FA0001" d="M12.34 10.4H9v-.76l1.04-1.04h1.26l1.04 1.04v.76Z"/>
  <path fill="#A7ACC3" d="m35.02 24.2-9.13-9.12V28H35l.03-3.81Z"/>
  <path fill="#A7ACC3" d="M20.02 29.55a8.48 8.48 0 1 0 0-16.96 8.48 8.48 0 0 0 0 16.96Z"/>
  <path fill="#fff" d="M20.02 26.33a5.26 5.26 0 1 0 0-10.52 5.26 5.26 0 0 0 0 10.52Z"/>
  <path fill="#232E6A" d="M19.98 30.5a9.43 9.43 0 1 1 0-18.86 9.43 9.43 0 0 1 0 18.86Zm0-16.96a7.52 7.52 0 1 0 0 15.05 7.52 7.52 0 0 0 0-15.05Z"/>
</svg>