<svg xmlns="http://www.w3.org/2000/svg" fill="none" viewBox="0 0 40 40">
  <path fill="#E3E4EA" d="M33.7 32.7H7c-.8 0-1.3-.8-1-1.5l.7-1.7H34l.7 1.7c.2.7-.3 1.5-1 1.5Z"/>
  <path fill="#E73B39" d="M10.6 18.3H8v-1.8h2.5v1.8ZM30.2 18.3h2.6v-1.8h-2.5v1.8Z"/>
  <path fill="#E6E5E5" d="M29.7 18.4H11l1.6-5c.3-1 1.2-1.6 2-1.6H26c1 0 1.7.6 2 1.5l1.8 5.1Z"/>
  <path fill="#F1F1F1" d="M21.3 11.9h-6.6c-1 0-1.8.6-2 1.5L11 18.5h5l5.3-6.6Z" style="mix-blend-mode:screen"/>
  <path fill="#A6ACC2" d="M27.5 22.6H22l-.3-.2v-7.1l.3-.3h5.4l.2.3v7l-.2.3ZM18.4 22.6h-5.3l-.3-.2v-7.1l.3-.3h5.3l.3.3v7l-.3.3Z"/>
  <path fill="#C8CBD9" d="M12.8 18.5H16l2.2-2.7-.7-.8h-3.3l-1.3 1.3v2.2Z"/>
  <path fill="#263168" d="M27.7 12.2c-1.1-1-3-1.1-7.4-1.1-4.3 0-6.2.2-7.3 1.1-1.2 1-3 5.9-3 5.9l1 .3s1.8-4.9 2.4-5.6c.5-.8 2.2-1 7-1 4.6 0 6.3.2 7 1 .5.7 2.2 5.6 2.2 5.6l1.1-.3s-1.9-5-3-5.9Z"/>
  <path fill="#E73B39" d="M31.4 18h-1.2c-3-1-9-.9-9.8-.9-.8 0-6.8 0-9.8 1H9.3c-1.3 0-3 1.3-3 4.1s.7 4.4.7 4.4c0 1 .7 1.5 1.6 1.5H32c1 0 1.6-.6 1.6-1.5 0 0 .8-1.6.8-4.4 0-2.8-1.8-4.1-3-4.1Z"/>
  <path fill="#fff" d="M9.7 23a2 2 0 1 0 0-4 2 2 0 0 0 0 4ZM31.2 23a2 2 0 1 0 0-4 2 2 0 0 0 0 4Z"/>
  <path fill="#263168" d="M34.1 26.2H6.5l-.5.5v1l.5.5V31l.3.2h3.5l.2-.2v-2.7h19.6V31l.3.2h3.5l.2-.2v-2.7l.5-.5v-1l-.5-.5ZM26.5 22.5l-1-.4s-3 1-5.2 1-5.1-1-5.1-1l-1 .4.4 1s2.8 1.2 5.7 1.2a19 19 0 0 0 5.8-1.2l.4-1Z"/>
  <path fill="#70C8E9" d="m10.8 11-.4-.2-1.2-1.3a.5.5 0 0 1 0-.7c.2-.3.5-.2.8 0l1.2 1.2a.5.5 0 0 1-.4 1Z"/>
  <path fill="#FFD334" d="M12.3 7.2c-.2 0-.3 0-.4-.2l-1.2-1.6a.5.5 0 1 1 .8-.7l1.2 1.6a.5.5 0 0 1-.4.9Z"/>
  <path fill="#70C8E9" d="M16.6 6.8a.5.5 0 0 1-.6-.4l-.5-1.7a.5.5 0 0 1 1-.4l.6 1.8a.5.5 0 0 1-.5.7Z"/>
  <path fill="#85BF66" d="M24.3 6.7H24a.5.5 0 0 1-.3-.8l.5-1.5c.1-.3.4-.4.7-.3.3.1.4.4.3.7l-.5 1.5c0 .2-.3.4-.5.4Z"/>
  <path fill="#70C8E9" d="M28 7.3a.5.5 0 0 1-.4-.9L29 5a.5.5 0 1 1 .9.7L28.5 7c-.1.2-.3.2-.4.2ZM20.3 5a.5.5 0 0 1-.5-.6l-.1-1.8c0-.3.2-.5.5-.5s.6.2.6.5v1.8c0 .3-.2.6-.5.6Z"/>
  <path fill="#FFD334" d="M29.8 11.1a.5.5 0 0 1-.2-1l1.9-.9c.3-.1.6 0 .7.3.1.3 0 .6-.3.7l-1.9.9h-.2Z"/>
</svg>