<svg xmlns="http://www.w3.org/2000/svg" fill="none" viewBox="0 0 40 40">
  <path fill="#CCD1DE" d="m16 10-3.3 23.6c-.1.7.4 1.4 1.2 1.4h10.7c.7 0 1.3-.6 1.2-1.3l-1.3-14a2 2 0 0 0-1.1-1.7l-.8-.3c-.7-.3-1.2-1-1.3-1.7l-.7-6H16Z"/>
  <path fill="#A5ACC4" d="M15.1 32.6 18 11.9h2.7v-.1l-.1-1.9-4.6.1-3.3 23.6c-.1.7.4 1.4 1.2 1.4h2.6c-.8 0-1.5-1-1.4-2.4Z"/>
  <path fill="#28316B" d="M20.8 10.1h-6.2c-.5 0-1.3-.7-1.3-2.1 0-2.3 2.2-3 3.3-3H25v3c-2.2 0-3.5.9-4.2 2.1Z"/>
  <path fill="#E73B39" d="M27.5 4.6h-2v3.6h2V4.6ZM22.5 9.5s.9-.7 2-.8c0 2.2 1.5 4 1.9 4.4.4.4.2.7-.3.7s-1.8-1-2.4-2c-.7-1-1.2-2.3-1.2-2.3Z"/>
  <path fill="#A5ACC4" d="M30.7 6h-1.8l-.1.2V7l.1.2h1.8l.2-.2v-.7l-.2-.2ZM34 6h-1.7l-.2.2V7s0 .2.2.2H34l.2-.2v-.7s0-.2-.2-.2ZM31.8 3.6l-1.7.6s-.1.2 0 .2l.1.7h.3l1.6-.5.1-.2-.2-.6-.2-.2ZM34.8 2.4l-1.6.6-.1.2.2.6c0 .1.1.2.2.1l1.7-.5V3l-.1-.6h-.3ZM32.1 8.5 30.5 8l-.3.1-.2.7.1.2 1.7.6.2-.1.2-.7-.1-.2ZM35.2 9.7l-1.7-.5h-.2l-.2.7.1.2 1.6.6.3-.1.2-.6-.1-.3Z"/>
</svg>