<svg xmlns="http://www.w3.org/2000/svg" viewBox="0 0 36 36">
  <defs/>
  <g fill="none" fill-rule="evenodd">
    <path fill="#FFF" fill-opacity=".1" d="M0 0h36v36H0z" opacity=".1"/>
    <g transform="translate(4 4)">
      <circle cx="13.7" cy="13.7" r="13.7" stroke="#232E6A" stroke-width="2"/>
      <circle cx="13.7" cy="13.7" r="10.1" fill="#A7ACC3" fill-rule="nonzero"/>
      <path fill="#CFD2DE" fill-rule="nonzero" d="M6.5 20.9A10.1 10.1 0 0021 6.5L6.5 21z"/>
      <circle cx="13.6" cy="13.8" r="2" fill="#FFF" fill-rule="nonzero"/>
      <path fill="#FA0001" fill-rule="nonzero" d="M22.4 5a.8.8 0 00-1.2 0l-8.3 8.3a.8.8 0 000 1.1l.1.2a.8.8 0 001.1 0l8.3-8.4a.8.8 0 000-1.1zm-9 9a.4.4 0 01.6-.5v.5l-.3.1-.3-.1z"/>
      <path fill="#FFF" fill-rule="nonzero" d="M8.2 17.9h2v2h-2zm3 0h2v2h-2zm3 0h2v2h-2zm3 0H19v2h-2z"/>
    </g>
  </g>
</svg>