<svg xmlns="http://www.w3.org/2000/svg" fill="none" viewBox="0 0 40 40">
  <path fill="#A6ACC2" d="M11.5 4.96h16c.96 0 1.71.75 1.71 1.7v26.6c0 .95-.75 1.7-1.7 1.7h-16c-.96 0-1.71-.75-1.71-1.7V6.64c0-.93.75-1.68 1.7-1.68Z"/>
  <path fill="#515888" d="M27.45 7.7H11.56v3.73h15.89V7.7Z"/>
  <path fill="#BBBED0" d="M27.45 11.43H11.56v1.37h15.89v-1.37Z"/>
  <path fill="#C8CBD9" d="M27.53 34.96H11.5a1.7 1.7 0 0 1-1.71-1.7V13.97h19.41v19.3c0 .93-.75 1.68-1.68 1.68Z"/>
  <path fill="#515888" d="M12.01 18.63h2.13c.12 0 .21.09.21.21v2.12a.2.2 0 0 1-.21.22H12a.2.2 0 0 1-.21-.22v-2.12c0-.13.09-.21.21-.21ZM15.44 18.63h2.13c.12 0 .21.09.21.21v2.12a.2.2 0 0 1-.21.22h-2.13a.2.2 0 0 1-.21-.22v-2.12c0-.13.1-.21.21-.21ZM18.87 18.63h2.12c.13 0 .22.09.22.21v2.12a.2.2 0 0 1-.22.22h-2.12a.2.2 0 0 1-.22-.22v-2.12c0-.13.11-.21.22-.21ZM12.01 21.98h2.13c.12 0 .21.09.21.21v2.13a.2.2 0 0 1-.21.21H12a.2.2 0 0 1-.21-.21v-2.13c0-.12.09-.21.21-.21ZM15.44 21.98h2.13c.12 0 .21.09.21.21v2.13a.2.2 0 0 1-.21.21h-2.13a.2.2 0 0 1-.21-.21v-2.13c0-.12.1-.21.21-.21ZM18.87 21.98h2.12c.13 0 .22.09.22.21v2.13a.2.2 0 0 1-.22.21h-2.12a.2.2 0 0 1-.22-.21v-2.13c0-.12.11-.21.22-.21ZM12.01 25.33h2.13c.12 0 .21.09.21.22v2.12a.2.2 0 0 1-.21.21H12a.2.2 0 0 1-.21-.21v-2.12c0-.13.09-.22.21-.22ZM15.44 25.33h2.13c.12 0 .21.09.21.22v2.12a.2.2 0 0 1-.21.21h-2.13a.2.2 0 0 1-.21-.21v-2.12c0-.13.1-.22.21-.22ZM18.87 25.33h2.12c.13 0 .22.09.22.22v2.12a.2.2 0 0 1-.22.21h-2.12a.2.2 0 0 1-.22-.21v-2.12c0-.13.11-.22.22-.22ZM12.01 28.67h2.13c.12 0 .21.1.21.22V31a.2.2 0 0 1-.21.22H12a.2.2 0 0 1-.21-.22V28.9c0-.11.09-.22.21-.22ZM15.44 28.67h2.13c.12 0 .21.1.21.22V31a.2.2 0 0 1-.21.22h-2.13a.2.2 0 0 1-.21-.22V28.9c0-.11.1-.22.21-.22ZM18.87 28.67h2.12c.13 0 .22.1.22.22V31a.2.2 0 0 1-.22.22h-2.12a.2.2 0 0 1-.22-.22V28.9c0-.11.11-.22.22-.22ZM23.82 18.63h2.12c.13 0 .22.09.22.21v2.12a.2.2 0 0 1-.22.22h-2.12a.2.2 0 0 1-.21-.22v-2.12c0-.13.09-.21.21-.21ZM23.82 21.98h2.12c.13 0 .22.09.22.21v2.13a.2.2 0 0 1-.22.21h-2.12a.2.2 0 0 1-.21-.21v-2.13c0-.12.09-.21.21-.21Z"/>
  <path fill="#E73B39" d="M23.82 25.33h2.12c.13 0 .22.09.22.22v5.64a.2.2 0 0 1-.22.21h-2.12a.2.2 0 0 1-.21-.21v-5.64c0-.13.09-.22.21-.22Z"/>
  <path fill="#FD6" d="M27.74 16.52a7.92 7.92 0 1 0 0-15.83 7.92 7.92 0 0 0 0 15.83Z"/>
  <path fill="#FDC603" d="M27.74.69a7.92 7.92 0 0 0-5.73 13.37L33.2 2.88a7.88 7.88 0 0 0-5.46-2.2Z"/>
  <path fill="#CFD2DD" d="M27.74 14.08a5.47 5.47 0 1 0 0-10.95 5.47 5.47 0 0 0 0 10.95Z"/>
  <path fill="#B2B6CA" d="M27.74 3.13a5.47 5.47 0 0 0-4 9.2l7.73-7.72a5.44 5.44 0 0 0-3.73-1.48Z"/>
  <path fill="#fff" d="M27.25 9.54c0-.38.05-.68.14-.9.1-.23.26-.45.5-.67.25-.22.42-.4.5-.54A.84.84 0 0 0 28.5 7c0-.46-.21-.69-.64-.69-.2 0-.36.06-.48.19a.73.73 0 0 0-.19.5h-1.18c.01-.51.18-.91.5-1.21.34-.3.79-.44 1.35-.44.57 0 1.03.14 1.34.42.32.28.48.67.48 1.18 0 .23-.05.45-.15.65-.1.2-.29.43-.55.68l-.33.32c-.2.2-.32.43-.35.7l-.02.24h-1.04Zm-.12 1.25a.6.6 0 0 1 .19-.45.66.66 0 0 1 .47-.18c.2 0 .35.06.48.18a.6.6 0 0 1 .18.45c0 .18-.06.32-.18.44a.66.66 0 0 1-.48.17.66.66 0 0 1-.47-.17.59.59 0 0 1-.19-.44Z"/>
</svg>