<svg xmlns="http://www.w3.org/2000/svg" fill="none" viewBox="0 0 40 40">
  <path fill="#2D3972" d="M29.86 34.96H12.5l-1.66-1.66V6.66L12.49 5h17.37l1.67 1.67V33.3l-1.67 1.66Z"/>
  <path fill="#A7ACC3" d="M27.54 34.98H10.16L8.5 33.3V6.67l1.66-1.66h17.38l1.66 1.66v26.64l-1.66 1.67Z"/>
  <path fill="#fff" d="M18.85 21.22a5.74 5.74 0 1 1 .02-11.49 5.74 5.74 0 0 1-.02 11.49Zm0-10.67a4.92 4.92 0 1 0 0 9.85 4.92 4.92 0 0 0 0-9.85Z"/>
  <path fill="#fff" d="M18.34 14.09c.2.08.36.22.48.4a1.2 1.2 0 0 1 0 1.21c-.12.18-.28.32-.48.4-.23.1-.48.15-.73.14h-.63v.87h-.73v-3.16h1.36c.25 0 .5.04.73.14Zm-.27 1.4a.5.5 0 0 0 .18-.4.5.5 0 0 0-.18-.4.77.77 0 0 0-.5-.13h-.6v1.1h.6c.18 0 .36-.05.5-.16ZM19.5 13.95h.74v2.56h1.58v.6h-2.31v-3.16ZM20.18 24.7H13.1v.81h7.07v-.81ZM24.6 26.95H13.1v.82h11.48v-.82ZM21.27 29.29h-8.16v.82h8.16v-.82Z"/>
  <path fill="#CFD2DE" d="m19.46 34.97 9.74-9.74v8.08l-1.66 1.66h-8.08Z"/>
  <path fill="#FB3333" d="M31.53 18.5a4.94 4.94 0 1 0 0-9.87 4.94 4.94 0 0 0 0 9.88Z"/>
</svg>