<svg width="186" height="121" viewBox="0 0 186 121" fill="none" xmlns="http://www.w3.org/2000/svg">
<path opacity="0.18" d="M16.2365 59.2041H47.1063L43.3947 50.2784L39.7953 48.9216H23.2111L19.8808 50.3793L16.2365 59.2041Z" fill="#232E6A"/>
<path d="M31.1612 48.9216L20.0602 49.7402L16.2365 59.3723H22.785L32.1592 49.0786C31.834 48.9889 31.4976 48.9328 31.15 48.9328L31.1612 48.9216Z" fill="#F0F0F0"/>
<path d="M27.1918 64.7026H23.4915L21.4843 62.6955V56.7525L23.4915 54.7454H27.1918L29.199 56.7525V62.6955L27.1918 64.7026Z" fill="#232E6A"/>
<path d="M22.7962 59.3778L27.0236 54.7356H23.5026L21.4955 56.7427V59.3666H22.8074L22.7962 59.3778Z" fill="#505888"/>
<path d="M39.145 64.7026H35.4447L33.4375 62.6955V56.7525L35.4447 54.7454H39.145L41.1521 56.7525V62.6955L39.145 64.7026Z" fill="#232E6A"/>
<path d="M12.2895 56.8843H15.3619L16.2253 57.7477V59.1381H13.7921L12.5138 58.0841L12.2783 56.8843H12.2895Z" fill="#505888"/>
<path d="M50.7954 56.8843H47.723L46.8596 57.7477V59.1381H49.2929L50.5712 58.0841L50.8066 56.8843H50.7954Z" fill="#505888"/>
<path d="M44.3927 50.5526C43.7087 50.0256 43.1817 49.6219 42.5089 49.1061C40.3896 48.8594 36.1847 48.4445 31.9798 48.3997C31.8789 48.3997 31.778 48.3997 31.677 48.3997C31.6098 48.3997 31.5425 48.3997 31.4752 48.3997C31.4079 48.3997 31.3406 48.3997 31.2734 48.3997C31.1724 48.3997 31.0715 48.3997 30.9706 48.3997C26.7545 48.4445 22.5608 48.8594 20.4415 49.1061C19.7575 49.6331 19.2305 50.0368 18.5577 50.5526L15.5862 58.94H17.6606L19.6229 51.573C20.206 51.046 20.6657 50.6423 21.2488 50.1265C23.2896 49.7452 26.5863 49.3416 30.8361 49.2967H30.8697C31.0715 49.2967 31.2846 49.2967 31.4864 49.2967C31.6995 49.2967 31.9013 49.2967 32.1031 49.2967H32.1368C36.3866 49.3416 39.672 49.7564 41.724 50.1265C42.3071 50.6535 42.7668 51.0572 43.3499 51.573L45.3122 58.94H47.3866L44.4152 50.5526H44.3927Z" fill="#232E6A"/>
<path d="M18.0531 68.1836H13.6912C13.4496 68.1836 13.2538 68.3794 13.2538 68.6209V79.4528C13.2538 79.6943 13.4496 79.8901 13.6912 79.8901H18.0531C18.2946 79.8901 18.4904 79.6943 18.4904 79.4528V68.6209C18.4904 68.3794 18.2946 68.1836 18.0531 68.1836Z" fill="#232E6A"/>
<path d="M49.1919 68.1836H44.83C44.5885 68.1836 44.3927 68.3794 44.3927 68.6209V79.4528C44.3927 79.6943 44.5885 79.8901 44.83 79.8901H49.1919C49.4334 79.8901 49.6292 79.6943 49.6292 79.4528V68.6209C49.6292 68.3794 49.4334 68.1836 49.1919 68.1836Z" fill="#232E6A"/>
<path d="M49.3376 59.7221L47.7005 58.7241H44.5048C40.4793 57.3337 37.6423 57.4795 31.5087 57.4795C26.1825 57.4795 22.5382 57.3337 18.5127 58.7241H15.0703L13.5453 59.6773L12.9174 64.1962L13.9153 71.0362L16.0458 73.1667H46.9717L49.1022 71.0362L50.1001 64.1962L49.3489 59.7109L49.3376 59.7221Z" fill="#AADFEB"/>
<path d="M20.9797 62.945L14.2518 62.3058V60.7248L14.7676 60.209H16.2141C17.7278 60.209 18.4791 60.2538 19.2304 60.7248C19.9817 61.1957 20.9797 62.945 20.9797 62.945Z" fill="white"/>
<path d="M41.6567 62.945L48.3846 62.3058V60.7248L47.8688 60.209H46.4223C44.9085 60.209 44.1573 60.2538 43.406 60.7248C42.6547 61.1957 41.6567 62.945 41.6567 62.945Z" fill="white"/>
<path d="M31.5649 62.8316L22.3477 62.7083C22.3477 62.7083 23.5923 65.7022 24.0969 66.4422C24.6015 67.1823 27.8309 67.9336 31.5649 67.9336C35.2988 67.9336 38.5394 67.1823 39.0328 66.4422C39.5262 65.7022 40.7821 62.7083 40.7821 62.7083L31.5649 62.8316Z" fill="#232E6A"/>
<path d="M31.565 66.2487C32.1843 66.2487 32.6863 65.7467 32.6863 65.1274C32.6863 64.5081 32.1843 64.0061 31.565 64.0061C30.9457 64.0061 30.4437 64.5081 30.4437 65.1274C30.4437 65.7467 30.9457 66.2487 31.565 66.2487Z" fill="#A7ACC3"/>
<path d="M48.6649 69.4441H43.4283C42.6546 69.4441 41.7127 70.9354 40.939 70.9354H22.0112C21.2375 70.9354 20.5423 69.4441 19.5219 69.4441H14.2854L12.9174 70.8121V73.806L14.2854 75.174H48.6649L50.0329 73.806V70.8121L48.6649 69.4441Z" fill="#232E6A"/>
<path d="M45.772 72.9226C46.255 72.9226 46.6466 72.531 46.6466 72.048C46.6466 71.5649 46.255 71.1733 45.772 71.1733C45.2889 71.1733 44.8973 71.5649 44.8973 72.048C44.8973 72.531 45.2889 72.9226 45.772 72.9226Z" fill="white"/>
<path d="M17.3691 72.9226C17.8522 72.9226 18.2438 72.531 18.2438 72.048C18.2438 71.5649 17.8522 71.1733 17.3691 71.1733C16.8861 71.1733 16.4945 71.5649 16.4945 72.048C16.4945 72.531 16.8861 72.9226 17.3691 72.9226Z" fill="white"/>
<path opacity="0.18" d="M94.2688 50.5457L91.0058 49.3235H74.5673L71.2707 50.77L67.66 58.0137H92.6317C92.9457 55.4459 93.4951 52.9453 94.2688 50.5569V50.5457Z" fill="#232E6A"/>
<path d="M81.7775 48.7168L71.7529 49.4569L68.2993 58.147H74.2198L82.6857 48.8514C82.3942 48.7616 82.0914 48.7168 81.7775 48.7168Z" fill="#F0F0F0"/>
<path d="M78.5817 64.1837H74.0516L72.493 62.6251V55.8748L74.0516 54.3162H78.5817L80.1403 55.8748V62.6251L78.5817 64.1837Z" fill="#232E6A"/>
<path d="M74.2198 58.1511L77.7183 54.3162H74.0516L72.493 55.8748V58.1511H74.231H74.2198Z" fill="#505888"/>
<path d="M92.329 62.7709C92.329 60.4049 92.5421 58.095 92.9457 55.8524L91.4095 54.3162H86.8794C86.2739 54.9217 85.9263 55.2693 85.3208 55.8748V62.6251C85.9263 63.2306 86.2739 63.5782 86.8794 64.1837H91.4095L92.3402 63.253C92.3402 63.0961 92.329 62.9391 92.329 62.7709Z" fill="#232E6A"/>
<path d="M63.601 55.8952L67.4134 55.043L68.0077 55.6373V58.0145H64.2625L63.6122 57.3641V55.9064L63.601 55.8952Z" fill="#B3B3B3"/>
<path d="M69.5888 68.3806H65.2606C65.0252 68.3806 64.8345 68.5714 64.8345 68.8067V79.5489C64.8345 79.7842 65.0252 79.975 65.2606 79.975H69.5888C69.8242 79.975 70.0149 79.7842 70.0149 79.5489V68.8067C70.0149 68.5714 69.8242 68.3806 69.5888 68.3806Z" fill="#232E6A"/>
<path d="M94.0895 51.0691C94.2353 50.5982 94.4035 50.1272 94.5605 49.6563L93.8877 49.1293C91.7908 48.8826 87.6307 48.4565 83.4482 48.4116C83.3473 48.4116 83.2464 48.4116 83.1455 48.4116C83.0782 48.4116 83.0109 48.4116 82.9437 48.4116C82.8764 48.4116 82.8091 48.4116 82.7418 48.4116C82.6409 48.4116 82.54 48.4116 82.4391 48.4116C78.2678 48.4565 74.1077 48.8826 71.9996 49.1405C71.3268 49.6787 70.7998 50.0824 70.127 50.6206L67.178 59.1875H69.23L71.1699 51.6522L72.7846 50.1721C74.8141 49.7908 78.0771 49.376 82.2821 49.3199H82.3157C82.5176 49.3199 82.7194 49.3199 82.9324 49.3199C83.1343 49.3199 83.3473 49.3199 83.5492 49.3199H83.5828C87.7877 49.3647 91.0508 49.7908 93.0803 50.1721C93.4392 50.4973 93.7531 50.7888 94.0671 51.0803L94.0895 51.0691Z" fill="#B3B3B3"/>
<path d="M92.329 62.7824C92.329 60.9322 92.4636 59.1269 92.7103 57.344C90.0303 56.9852 87.3392 57.0413 82.91 57.0413C77.9314 57.0413 74.4216 56.9516 70.6989 57.7813H67.761L66.8304 59.7548L64.5204 62.4909V72.4481L66.7182 74.5562H94.1119C92.957 70.8334 92.329 66.8752 92.329 62.7824Z" fill="#CCCCCC"/>
<path d="M71.8986 62.9187L72.6387 64.724L66.5724 64.0176L66.0678 63.4569L66.3145 61.9992L66.8303 61.4834L70.7549 61.9992L71.8986 62.9187Z" fill="white"/>
<path d="M92.329 62.7816C92.329 62.7143 92.329 62.647 92.329 62.591L91.7235 61.7275H74.2534L73.4909 62.804L74.1973 64.7887C74.444 65.4839 75.8008 66.0334 75.8008 66.0334C75.8008 66.0334 78.548 66.6725 82.9884 66.6725C87.4288 66.6725 90.1761 66.0334 90.1761 66.0334C90.9049 65.9661 91.5328 65.4839 91.7795 64.7887L92.329 63.2189C92.329 63.0731 92.329 62.9273 92.329 62.7816Z" fill="#232E6A"/>
<path d="M82.9997 62.3105C82.069 62.3105 81.3065 63.073 81.3065 64.0037C81.3065 64.9344 82.069 65.6969 82.9997 65.6969C83.9304 65.6969 84.6929 64.9344 84.6929 64.0037C84.6929 63.073 83.9304 62.3105 82.9997 62.3105ZM82.9997 65.3493C82.2596 65.3493 81.6653 64.755 81.6653 64.0149C81.6653 63.2749 82.2596 62.6806 82.9997 62.6806C83.7398 62.6806 84.3341 63.2749 84.3341 64.0149C84.3341 64.755 83.7398 65.3493 82.9997 65.3493Z" fill="#CCCCCC"/>
<path d="M70.4402 68.9495L71.3148 67.8394H65.8876V68.9495H70.4402Z" fill="#232E6A"/>
<path d="M65.8884 69.5569V70.7455L66.236 71.0931L68.075 71.0594C68.5235 71.0594 68.9384 70.8352 69.2187 70.4876L69.9476 69.5569H65.8772H65.8884Z" fill="#232E6A"/>
<path d="M92.9345 69.6077H72.4144L70.2054 73.2519C70.2054 73.2519 78.5032 73.2856 82.1138 73.308H83.7846C86.3075 73.2968 91.0843 73.2744 93.753 73.2631C93.4279 72.0633 93.1587 70.8523 92.9457 69.6189L92.9345 69.6077Z" fill="#232E6A"/>
<path d="M92.7327 68.3897L92.4411 67.9075L91.6338 67.459H74.2422L73.4349 67.9075L72.6275 69.2419H92.856C92.8112 68.9615 92.7663 68.67 92.7215 68.3897H92.7327Z" fill="#232E6A"/>
<path d="M48.5192 86.3025H13.209C12.6207 86.3025 12.1438 86.7794 12.1438 87.3677C12.1438 87.9561 12.6207 88.433 13.209 88.433H48.5192C49.1075 88.433 49.5845 87.9561 49.5845 87.3677C49.5845 86.7794 49.1075 86.3025 48.5192 86.3025Z" fill="#C4C7D7"/>
<path d="M33.3366 90.866H13.209C12.6207 90.866 12.1438 91.3429 12.1438 91.9312C12.1438 92.5195 12.6207 92.9965 13.209 92.9965H33.3366C33.925 92.9965 34.4019 92.5195 34.4019 91.9312C34.4019 91.3429 33.925 90.866 33.3366 90.866Z" fill="#C4C7D7"/>
<path d="M40.67 95.4629H13.209C12.6207 95.4629 12.1438 95.9398 12.1438 96.5281C12.1438 97.1165 12.6207 97.5934 13.209 97.5934H40.67C41.2583 97.5934 41.7353 97.1165 41.7353 96.5281C41.7353 95.9398 41.2583 95.4629 40.67 95.4629Z" fill="#C4C7D7"/>
<path d="M99.012 86.3025H63.7018C63.1135 86.3025 62.6366 86.7794 62.6366 87.3677C62.6366 87.9561 63.1135 88.433 63.7018 88.433H99.012C99.6003 88.433 100.077 87.9561 100.077 87.3677C100.077 86.7794 99.6003 86.3025 99.012 86.3025Z" fill="#C4C7D7"/>
<path d="M83.8294 90.866H63.7018C63.1135 90.866 62.6366 91.3429 62.6366 91.9312C62.6366 92.5195 63.1135 92.9965 63.7018 92.9965H83.8294C84.4178 92.9965 84.8947 92.5195 84.8947 91.9312C84.8947 91.3429 84.4178 90.866 83.8294 90.866Z" fill="#C4C7D7"/>
<path d="M91.1628 95.4629H63.7018C63.1135 95.4629 62.6366 95.9398 62.6366 96.5281C62.6366 97.1165 63.1135 97.5934 63.7018 97.5934H91.1628C91.7512 97.5934 92.2281 97.1165 92.2281 96.5281C92.2281 95.9398 91.7512 95.4629 91.1628 95.4629Z" fill="#C4C7D7"/>
<path d="M161.245 107.332V112.389C161.245 114.172 159.787 115.63 158.004 115.63H6.16723C4.38434 115.63 2.92663 114.172 2.92663 112.389V13.7922H161.245V35.983C162.288 37.1267 163.263 38.3377 164.172 39.5936V6.16723C164.172 2.76965 161.402 0 158.004 0H6.16723C2.76965 0 0 2.76965 0 6.16723V112.389C0 115.787 2.76965 118.557 6.16723 118.557H158.016C161.413 118.557 164.183 115.787 164.183 112.389V110.124L161.256 107.332H161.245Z" fill="#E6E6E6"/>
<path d="M126.776 7.73828H20.9573C19.8921 7.73828 19.0286 8.60177 19.0286 9.66694V9.67815C19.0286 10.7433 19.8921 11.6068 20.9573 11.6068H126.776C127.841 11.6068 128.704 10.7433 128.704 9.67815V9.66694C128.704 8.60177 127.841 7.73828 126.776 7.73828Z" fill="white"/>
<path d="M5.06839 5.89386C5.88585 5.89386 6.54853 5.23118 6.54853 4.41373C6.54853 3.59627 5.88585 2.93359 5.06839 2.93359C4.25094 2.93359 3.58826 3.59627 3.58826 4.41373C3.58826 5.23118 4.25094 5.89386 5.06839 5.89386Z" fill="#CCCCCC"/>
<path d="M9.28464 5.89386C10.1021 5.89386 10.7648 5.23118 10.7648 4.41373C10.7648 3.59627 10.1021 2.93359 9.28464 2.93359C8.46718 2.93359 7.8045 3.59627 7.8045 4.41373C7.8045 5.23118 8.46718 5.89386 9.28464 5.89386Z" fill="#CCCCCC"/>
<path d="M13.6241 5.89386C14.4415 5.89386 15.1042 5.23118 15.1042 4.41373C15.1042 3.59627 14.4415 2.93359 13.6241 2.93359C12.8066 2.93359 12.1439 3.59627 12.1439 4.41373C12.1439 5.23118 12.8066 5.89386 13.6241 5.89386Z" fill="#CCCCCC"/>
<path opacity="0.18" d="M144.694 38.3696H134.737L129.781 40.7132L124.343 54.8978H158.363C156.221 47.7214 151.232 41.7784 144.706 38.3696H144.694Z" fill="#232E6A"/>
<path d="M154.326 46.7341H153.855C152.667 47.9227 151.983 48.6067 150.783 49.8065V61.8158C151.972 63.0044 152.656 63.6884 153.855 64.8882H159.406C159.462 64.193 159.496 63.4866 159.496 62.7689C159.496 56.7811 157.578 51.253 154.326 46.7341Z" fill="#A7ACC3"/>
<path d="M140.108 64.8882H132.18L129.108 61.8158V49.8065L132.18 46.7341H140.108L143.181 49.8065V61.8158L140.108 64.8882Z" fill="#A7ACC3"/>
<g style="mix-blend-mode:screen" opacity="0.5">
<path d="M145.502 38.6453H133.582C131.351 38.6453 129.366 40.1478 128.648 42.3905L124.757 54.6128H136.542L148.047 40.4394L145.491 38.6453H145.502Z" fill="#F2F2F2"/>
</g>
<path d="M128.906 39.5359L122.1 54.2812L124.982 54.2252L130.05 40.8255L135.466 38.8183H145.513C144.425 38.2016 143.293 37.6634 142.127 37.2036H134.423L128.918 39.5472L128.906 39.5359Z" fill="#232E6A"/>
<path d="M123.468 54.4479H118.343L117.166 53.2705V51.297L118.343 50.1196H122.29L123.468 51.297V54.4479Z" fill="#FB3333"/>
<path d="M122.761 85.2882H114.811L114.026 84.9069V75.443C114.026 75.23 114.385 75.0618 114.811 75.0618H122.761C123.199 75.0618 123.546 75.2412 123.546 75.443V84.9069L122.761 85.2882Z" fill="#232E6A"/>
<path d="M158.06 53.9795H120.552C117.559 53.9795 113.286 57.1528 113.286 63.9592C113.286 70.7655 115.103 74.6004 115.103 74.6004C115.103 76.7421 116.852 77.6953 118.994 77.6953H155.089C157.881 73.3894 159.507 68.265 159.507 62.7481C159.507 59.6757 158.991 56.7267 158.072 53.9683L158.06 53.9795Z" fill="#FB3333"/>
<path d="M121.506 65.7821C124.138 65.7821 126.271 63.6485 126.271 61.0166C126.271 58.3846 124.138 56.251 121.506 56.251C118.874 56.251 116.74 58.3846 116.74 61.0166C116.74 63.6485 118.874 65.7821 121.506 65.7821Z" fill="white"/>
<path d="M113.937 73.5073C113.432 74.0119 113.141 74.3034 112.636 74.808V77.1852C113.141 77.6898 113.432 77.9813 113.937 78.4859H154.551C155.638 76.9273 156.569 75.2566 157.32 73.4961H113.937V73.5073Z" fill="#232E6A"/>
<path d="M147.318 51.7194C145.367 51.6746 130.969 51.4615 123.647 53.9957C123.647 53.9957 131.07 59.7817 147.094 59.8938C147.172 59.8938 147.24 59.8938 147.318 59.8938C147.397 59.8938 147.464 59.8938 147.542 59.8938C152.129 59.8601 155.975 59.3556 159.182 58.6603C158.823 56.2944 158.173 54.0181 157.253 51.8988C152.443 51.6297 148.294 51.697 147.318 51.7194Z" fill="#FB3333"/>
<path d="M159.35 59.8965H132.214C131.519 60.5917 131.126 60.9842 130.431 61.6794V64.0229C131.126 64.7181 131.519 65.1106 132.214 65.8058H159.339C159.451 64.8078 159.507 63.7987 159.507 62.7783C159.507 61.7579 159.451 60.8496 159.361 59.9077L159.35 59.8965Z" fill="#232E6A"/>
<path d="M148.653 61.5647H146.096V64.1213H148.653V61.5647Z" fill="#FB3333"/>
<path d="M183.795 112.667L158.386 87.2579C164.295 80.8327 167.906 72.2659 167.906 62.8693C167.906 42.9772 151.714 26.7854 131.822 26.7854C111.93 26.7854 95.7378 42.9772 95.7378 62.8693C95.7378 82.7614 111.93 98.9532 131.822 98.9532C139.155 98.9532 145.973 96.7554 151.669 92.9878L177.571 118.89C178.435 119.754 179.556 120.18 180.677 120.18C181.799 120.18 182.931 119.754 183.783 118.89C185.499 117.175 185.499 114.394 183.783 112.667H183.795ZM100.346 62.8581C100.346 45.4777 114.441 31.3828 131.822 31.3828C149.202 31.3828 163.297 45.4777 163.297 62.8581C163.297 80.2385 149.202 94.3334 131.822 94.3334C114.441 94.3334 100.346 80.2385 100.346 62.8581Z" fill="#C4C7D7"/>
</svg>
