<svg width="200" height="200" viewBox="0 0 200 200" fill="none" xmlns="http://www.w3.org/2000/svg">
  <path d="M137 41.7129C84.2142 19.0462 85.0952 74.9986 24.3333 83.3319L61.3095 164.118C119.69 164.118 113.929 105.594 162.714 116.237L137 41.7129Z" fill="#E7E8EE"/>
  <path d="M62.7857 102.856H54.7619L52.9285 101.046V97.9749L54.7619 96.1416H60.9524L62.7857 97.9749V102.856Z" fill="#FA0000"/>
  <path d="M136.024 102.856H143.952L145.786 101.046V97.9749L143.952 96.1416H137.857L136.024 97.9749V102.856Z" fill="#FA0000"/>
  <path d="M134.048 103.261H64.4763L70.5001 84.3322C71.0026 82.6879 72.0127 81.2448 73.3856 80.2098C74.7585 79.1747 76.4239 78.6008 78.143 78.5703H119.929C121.624 78.5938 123.268 79.1488 124.631 80.1569C125.994 81.165 127.006 82.5755 127.524 84.1894L134.048 103.261Z" fill="#E7E8EE"/>
  <g style="mix-blend-mode:screen">
    <path d="M102.81 78.9043H78.143C76.4178 78.938 74.748 79.5188 73.3743 80.563C72.0007 81.6071 70.9942 83.0606 70.5001 84.7138L64.4763 103.761H82.7382L102.81 78.9043Z" fill="#F2F2F2"/>
  </g>
  <path d="M121.81 118.833H109.524L104.762 114.071V95.4758L109.524 90.7139H121.81L126.571 95.4758V114.095L121.81 118.833Z" fill="#A7ACC3"/>
  <path d="M88.238 118.833H75.9522L71.1903 114.071V95.4758L75.9522 90.7139H88.238L92.9999 95.4758V114.095L88.238 118.833Z" fill="#A7ACC3"/>
  <path d="M71.2142 103.642H82.738L90.9999 93.4754L88.238 90.7373H75.9761L71.2142 95.4992V103.642Z" fill="#C9CCDA"/>
  <path d="M126.571 80.1899C122.357 76.6661 115.309 75.9756 99.1665 75.9756C83.0237 75.9756 75.9761 76.6661 71.738 80.1899C67.4999 83.7137 60.4999 101.976 60.4999 101.976L64.5951 103.166C64.5951 103.166 71.0475 85.1184 73.1427 82.2851C75.238 79.4518 81.5951 78.7851 99.1665 78.7851C116.738 78.7851 122.976 79.4756 125.167 82.2851C127.357 85.0946 133.714 103.166 133.714 103.166L137.809 101.976C137.809 101.976 130.786 83.7137 126.571 80.1899Z" fill="#232E6A"/>
  <path d="M140.476 101.975H136.191C124.738 98.0465 102.381 98.3798 99.4287 98.4512C96.4763 98.5226 74.0954 98.0465 62.7621 101.975H58.0002C53.3573 101.975 46.7621 106.904 46.7621 117.427C46.5741 123.053 47.5299 128.658 49.5716 133.904C49.5883 134.662 49.7603 135.409 50.0771 136.098C50.3938 136.787 50.8485 137.404 51.413 137.911C51.9776 138.417 52.64 138.802 53.3593 139.043C54.0787 139.283 54.8397 139.374 55.5954 139.308H142.857C143.613 139.374 144.374 139.283 145.093 139.043C145.813 138.802 146.475 138.417 147.04 137.911C147.604 137.404 148.059 136.787 148.376 136.098C148.692 135.409 148.864 134.662 148.881 133.904C150.923 128.658 151.879 123.053 151.691 117.427C151.595 106.904 145 101.975 140.476 101.975Z" fill="#FA0000"/>
  <path d="M59.4525 120.237C63.5289 120.237 66.8335 116.932 66.8335 112.856C66.8335 108.779 63.5289 105.475 59.4525 105.475C55.3762 105.475 52.0716 108.779 52.0716 112.856C52.0716 116.932 55.3762 120.237 59.4525 120.237Z" fill="white"/>
  <path d="M139.571 120.237C143.648 120.237 146.952 116.932 146.952 112.856C146.952 108.779 143.648 105.475 139.571 105.475C135.495 105.475 132.191 108.779 132.191 112.856C132.191 116.932 135.495 120.237 139.571 120.237Z" fill="white"/>
  <path d="M145.238 139.309H53.0715L51.2619 141.118V144.428L53.0715 146.237H53.1905V157.142L53.881 157.713H65.6429L66.4048 157.142V146.237H131.881V157.142L132.643 157.713H144.333L145.238 157.142V146.237C145.929 145.523 146.333 145.118 147.048 144.428V141.118C146.238 140.475 145.833 140.023 145.238 139.309Z" fill="#232E6A"/>
  <path d="M150.476 132.189H47.6189L45.5951 134.213V137.904L47.6189 139.928H47.7618V149.808L48.5475 150.451H61.6665L62.5237 149.808V139.928H135.714V149.808L136.547 150.451H149.619L150.476 149.808V139.928L152.5 137.904V134.213L150.476 132.189Z" fill="#232E6A"/>
  <path d="M122.095 118.403L118.405 116.975C112.208 119.186 105.733 120.524 99.1667 120.951C92.598 120.543 86.1206 119.205 79.9286 116.975L76.2143 118.403L77.6429 122.117C84.4829 124.802 91.7283 126.307 99.0714 126.57C106.402 126.204 113.631 124.702 120.5 122.117L122.095 118.403Z" fill="#232E6A"/>
  <path d="M185.286 174.808V174.666C156.749 170.487 127.935 168.505 99.0951 168.737C70.2635 168.505 41.4566 170.487 12.9285 174.666V174.808H185.286Z" fill="#A7ACC3"/>
  <path d="M162.691 122.023L157.929 121.714C158.137 114.257 156.006 106.922 151.833 100.738L155.667 97.9043C160.525 104.987 162.987 113.44 162.691 122.023Z" fill="#BCC0D1"/>
  <path d="M167.119 112.618C166.178 107.549 164.493 102.647 162.119 98.0699L165.476 96.2842C168.079 101.272 169.91 106.627 170.905 112.165L167.119 112.618Z" fill="#E7E8EE"/>
  <path d="M26.8334 124.857C26.4762 121.738 25.6191 111 29.2143 104.404L32.5476 106.238C30.1667 110.69 29.9524 118.571 30.6191 124.428L26.8334 124.857Z" fill="#E7E8EE"/>
  <path d="M37.4761 129.689C36.0952 124.785 33.619 112.237 40.5 102.07L44.4285 104.761C38.5238 113.499 41.119 125.094 42.0476 128.427L37.4761 129.689Z" fill="#BCC0D1"/>
  <path d="M109.214 39.6891L92.7381 27.7843L80.8333 44.2605C75.8531 39.293 69.4102 36.0549 62.4524 35.0224C66.1143 40.1234 68.5579 45.9961 69.5952 52.1891L71.8333 66.1653L98.0238 60.5938L124.643 57.7367L122.405 43.7605C121.456 37.5501 121.945 31.2048 123.833 25.2129C117.535 28.3475 112.411 33.4221 109.214 39.6891Z" fill="#FFD333"/>
  <path d="M98.7116 65.2336C113.294 62.9032 124.879 59.5403 124.589 57.7224C124.298 55.9045 112.242 56.32 97.6596 58.6505C83.0776 60.9809 71.492 64.3438 71.7826 66.1617C72.0731 67.9796 84.1296 67.564 98.7116 65.2336Z" fill="#FF933B"/>
  <path d="M155.976 162.356C157.002 162.356 157.833 161.524 157.833 160.499C157.833 159.473 157.002 158.642 155.976 158.642C154.95 158.642 154.119 159.473 154.119 160.499C154.119 161.524 154.95 162.356 155.976 162.356Z" fill="#E7E8EE"/>
  <path d="M44.4284 158.642C45.4541 158.642 46.2855 157.811 46.2855 156.785C46.2855 155.759 45.4541 154.928 44.4284 154.928C43.4027 154.928 42.5713 155.759 42.5713 156.785C42.5713 157.811 43.4027 158.642 44.4284 158.642Z" fill="#E7E8EE"/>
  <path d="M148.5 166.023C149.013 166.023 149.429 165.607 149.429 165.095C149.429 164.582 149.013 164.166 148.5 164.166C147.987 164.166 147.571 164.582 147.571 165.095C147.571 165.607 147.987 166.023 148.5 166.023Z" fill="#E7E8EE"/>
  <path d="M49.2382 159.571C49.751 159.571 50.1667 159.155 50.1667 158.642C50.1667 158.13 49.751 157.714 49.2382 157.714C48.7253 157.714 48.3096 158.13 48.3096 158.642C48.3096 159.155 48.7253 159.571 49.2382 159.571Z" fill="#E7E8EE"/>
  <path d="M140.5 164.214C141.013 164.214 141.429 163.798 141.429 163.285C141.429 162.772 141.013 162.356 140.5 162.356C139.987 162.356 139.572 162.772 139.572 163.285C139.572 163.798 139.987 164.214 140.5 164.214Z" fill="#E7E8EE"/>
  <path d="M53.9524 164.214C54.4652 164.214 54.881 163.798 54.881 163.285C54.881 162.772 54.4652 162.356 53.9524 162.356C53.4396 162.356 53.0238 162.772 53.0238 163.285C53.0238 163.798 53.4396 164.214 53.9524 164.214Z" fill="#E7E8EE"/>
  <path d="M150.714 162.356C151.438 162.356 152.024 161.77 152.024 161.047C152.024 160.324 151.438 159.737 150.714 159.737C149.991 159.737 149.405 160.324 149.405 161.047C149.405 161.77 149.991 162.356 150.714 162.356Z" fill="#E7E8EE"/>
  <path d="M44.4287 164.594C45.152 164.594 45.7383 164.007 45.7383 163.284C45.7383 162.561 45.152 161.975 44.4287 161.975C43.7055 161.975 43.1192 162.561 43.1192 163.284C43.1192 164.007 43.7055 164.594 44.4287 164.594Z" fill="#E7E8EE"/>
</svg>
